<svg xmlns="http://www.w3.org/2000/svg" viewBox="0 0 32 32">
  <rect width="32" height="32" rx="6" fill="#F59E0B"/>
  <circle cx="16" cy="12" r="6" fill="#FDE68A"/>
  <path d="M16 6 L16 2 M22 12 L26 12 M16 18 L16 22 M10 12 L6 12 M21 7 L24 4 M21 17 L24 20 M11 7 L8 4 M11 17 L8 20" stroke="#FDE68A" stroke-width="2" stroke-linecap="round"/>
  <rect x="8" y="20" width="16" height="10" rx="1" fill="#1E293B"/>
  <rect x="10" y="21" width="5" height="3" rx="0.5" fill="#3B82F6" opacity="0.8"/>
  <rect x="17" y="21" width="5" height="3" rx="0.5" fill="#3B82F6" opacity="0.8"/>
  <rect x="10" y="26" width="5" height="3" rx="0.5" fill="#3B82F6" opacity="0.8"/>
  <rect x="17" y="26" width="5" height="3" rx="0.5" fill="#3B82F6" opacity="0.8"/>
</svg>
